<svg width="1909" height="433" viewBox="0 0 1909 433" fill="#171717" xmlns="http://www.w3.org/2000/svg">
<path d="M328.373 0L232.985 181.528H130.652L128.14 186.798L106.792 231.575H0L78.0242 83.4806H88.5718C144.657 83.4806 196.284 51.3822 225.378 0H328.373Z" fill="#171717"/>
<path d="M351 200.059L273.128 348.609H262.594C206.313 348.609 154.729 380.585 125.575 432.318H22.5811L118.118 250.24H220.414L222.94 245.014L244.663 200.059H351Z" fill="#171717"/>
<path d="M563.684 339.077C493.476 339.077 454 289.961 454 231.619C454 173.776 493.476 124.659 563.684 124.659C633.892 124.659 673.369 173.776 673.369 231.619C673.369 289.961 633.892 339.077 563.684 339.077ZM490.228 231.619C490.228 271.76 512.465 307.164 563.684 307.164C614.904 307.164 637.14 271.76 637.14 231.619C637.14 192.226 614.904 156.573 563.684 156.573C512.465 156.573 490.228 192.226 490.228 231.619Z" fill="#171717"/>
<path d="M831.867 336.584V307.912C819.375 326.611 799.637 339.077 771.404 339.077C731.178 339.077 704.694 312.151 704.694 267.771V174.524H738.673V263.283C738.673 293.451 753.414 309.907 782.897 309.907C824.122 309.907 831.867 278.243 831.867 261.289V174.524H865.847V336.584H831.867Z" fill="#171717"/>
<path d="M1029.93 174.524V203.695H971.711V280.237C971.711 300.682 975.209 307.413 989.451 307.413H1029.93V336.584H983.704C947.726 336.584 938.481 318.633 938.481 286.221V203.695H889.76V174.524H913.496C936.482 174.524 943.228 160.063 942.979 127.152H976.209C976.209 152.334 971.462 171.283 959.719 174.524H1029.93Z" fill="#171717"/>
<path d="M1186.73 237.852C1185.23 220.898 1170.74 201.451 1137.26 201.451C1099.28 201.451 1084.04 223.89 1084.04 255.554V256.302C1084.04 287.218 1099.28 309.657 1137.51 309.657C1172.99 309.657 1185.23 290.21 1186.98 273.007L1187.73 266.275H1222.21L1221.46 273.007C1217.71 305.917 1191.98 339.077 1136.76 339.077C1078.04 339.077 1049.31 304.92 1049.31 255.554V255.055C1049.31 206.188 1078.04 172.031 1136.76 172.031C1191.48 172.031 1218.46 204.692 1221.46 237.852L1222.21 245.082H1187.73L1186.73 237.852Z" fill="#171717"/>
<path d="M1331.91 339.077C1274.45 339.077 1246.21 304.92 1246.21 255.554C1246.21 206.188 1274.45 172.031 1331.91 172.031C1389.63 172.031 1417.61 206.188 1417.61 255.554C1417.61 304.92 1389.63 339.077 1331.91 339.077ZM1280.94 255.554C1280.94 287.218 1294.69 309.657 1331.91 309.657C1369.39 309.657 1383.13 287.218 1383.13 255.554C1383.13 223.89 1369.39 201.451 1331.91 201.451C1294.69 201.451 1280.94 223.89 1280.94 255.554Z" fill="#171717"/>
<path d="M1672.46 245.082C1672.46 224.389 1665.97 201.202 1634.48 201.202C1598.01 201.202 1592.51 231.12 1592.51 245.332V336.584H1558.53V245.082C1558.53 224.887 1552.28 201.202 1520.55 201.202C1484.32 201.202 1478.58 231.12 1478.58 245.082V336.584H1444.85V174.524H1478.58V195.716C1489.57 179.51 1505.81 172.031 1527.8 172.031C1556.78 172.031 1574.52 184.746 1583.76 202.697C1594.51 184.497 1612.75 172.031 1640.73 172.031C1683.45 172.031 1706.44 200.454 1706.44 237.603V336.584H1672.46V245.082Z" fill="#171717"/>
<path d="M1735.42 255.305V255.055C1735.42 206.188 1764.15 172.031 1824.37 172.031C1877.08 172.031 1908.32 202.199 1908.32 255.305V263.283H1770.9C1773.15 290.709 1789.14 309.657 1824.62 309.657C1853.35 309.657 1865.59 296.692 1868.59 284.476L1869.09 282.98H1906.57L1906.32 284.476C1901.57 314.394 1874.84 339.077 1824.12 339.077C1764.15 339.077 1735.42 304.92 1735.42 255.305ZM1772.4 238.6H1873.09L1872.84 238.101C1869.09 214.665 1851.35 201.451 1822.87 201.451C1793.13 201.451 1777.39 216.161 1772.4 238.6Z" fill="#171717"/>
</svg>
