<?xml version="1.0" encoding="UTF-8"?>
<svg class="root" viewBox="38 78 1124 694" xmlns="http://www.w3.org/2000/svg" preserveAspectRatio="xMidYMid meet" role="img" aria-label="HIP-4 SDK stack: outcome's connector summons the SDK; box draws itself in response to each connection">

  <style>
    svg.root {
      --diagram-bg: #fafafa;
    }
    @media (prefers-color-scheme: dark) {
      svg.root { --diagram-bg: #0a0a0a; }
    }

    .bg-fill            { fill: var(--diagram-bg); }
    .stroke             { stroke: #171717; fill: none; }
    .stroke-faded       { stroke: #171717; opacity: 0.32; fill: none; }
    .stroke-band-bright { stroke: #171717; opacity: 0.7; fill: none; }
    .stroke-band-faded  { stroke: #171717; opacity: 0.28; fill: none; }

    .label          { fill: #171717; font-family: ui-monospace, 'SF Mono', 'Geist Mono', Menlo, monospace; }
    .label-faded    { fill: #171717; opacity: 0.45; font-family: ui-monospace, 'SF Mono', 'Geist Mono', Menlo, monospace; }
    .faint          { fill: #a3a3a3; font-family: ui-monospace, 'SF Mono', 'Geist Mono', Menlo, monospace; }
    .grid-dot       { fill: #171717; }
    .icon-fill      { fill: #171717; }
    .icon-fill-faded { fill: #171717; opacity: 0.5; }

    .connector-dotted {
      stroke: #171717;
      stroke-width: 1;
      stroke-dasharray: 3 4;
      fill: none;
      opacity: 0.55;
    }
    .reveal-mask {
      stroke: #fff;
      stroke-width: 4;
      fill: none;
      stroke-linecap: square;
    }

    @media (prefers-color-scheme: dark) {
      .stroke             { stroke: #e5e5e5; }
      .stroke-faded       { stroke: #e5e5e5; opacity: 0.32; }
      .stroke-band-bright { stroke: #e5e5e5; opacity: 0.7; }
      .stroke-band-faded  { stroke: #e5e5e5; opacity: 0.28; }
      .connector-dotted   { stroke: #e5e5e5; }
      .label              { fill: #fafafa; }
      .label-faded        { fill: #fafafa; opacity: 0.45; }
      .faint              { fill: #525252; }
      .grid-dot           { fill: #fafafa; }
      .icon-fill          { fill: #e5e5e5; }
      .icon-fill-faded    { fill: #e5e5e5; opacity: 0.5; }
    }

    .grid-layer { animation: fadeIn 500ms cubic-bezier(0.2, 0.8, 0.2, 1) 0ms both; }
    .corner-ticks {
      animation: drawIn 600ms cubic-bezier(0.2, 0.8, 0.2, 1) 0ms both;
      stroke-dasharray: 80; stroke-dashoffset: 80;
    }
    .meta-strip { animation: fadeIn 300ms ease-out 150ms both; }

    .layer-band-apps { opacity: 0; animation: fadeInBandFaded 600ms cubic-bezier(0.2, 0.8, 0.2, 1) 200ms forwards; }
    .layer-band-sdk  { opacity: 0; animation: fadeInBandBright 600ms cubic-bezier(0.2, 0.8, 0.2, 1) 300ms forwards; }
    .layer-band-hip4 { opacity: 0; animation: fadeInBandFaded 600ms cubic-bezier(0.2, 0.8, 0.2, 1) 400ms forwards; }

    .spine-outcome { opacity: 0; animation: fadeIn 500ms ease-out 600ms forwards; }
    .spine-hip4    { opacity: 0; animation: fadeIn 500ms ease-out 700ms forwards; }
    .outcome-icon {
      opacity: 0;
      transform: scale(0.85);
      animation: iconPop 600ms cubic-bezier(0.34, 1.4, 0.5, 1) 600ms forwards;
      transform-box: fill-box;
      transform-origin: center;
    }
    .app-side-left  { opacity: 0; animation: fadeInFaded 700ms ease-out 800ms forwards; }
    .app-side-right { opacity: 0; animation: fadeInFaded 700ms ease-out 900ms forwards; }

    .m-outcome  { --len: 125; --dur: 1200ms; --delay: 1100ms; }
    .m-app-left { --len: 415; --dur: 1600ms; --delay: 1100ms; }
    .m-app-right{ --len: 415; --dur: 1500ms; --delay: 1200ms; }
    .m-hip4     { --len: 130; --dur: 3300ms; --delay: 1200ms; }

    .module-box {
      opacity: 0;
      animation: fadeIn 700ms cubic-bezier(0.25, 0.7, 0.3, 1) forwards;
    }
    .module-l3 { animation-delay: 2700ms; }
    .module-r3 { animation-delay: 2700ms; }
    .module-l2 { animation-delay: 3000ms; }
    .module-r2 { animation-delay: 3000ms; }
    .module-l1 { animation-delay: 3200ms; }
    .module-r1 { animation-delay: 3200ms; }

    .module-name {
      opacity: 0;
      transform: translateY(4px);
      animation: riseFaded 500ms cubic-bezier(0.2, 0.8, 0.2, 1) forwards;
      transform-box: fill-box;
      transform-origin: center;
    }
    .module-name.module-l3 { animation-delay: 2900ms; }
    .module-name.module-r3 { animation-delay: 2900ms; }
    .module-name.module-l2 { animation-delay: 3200ms; }
    .module-name.module-r2 { animation-delay: 3200ms; }
    .module-name.module-l1 { animation-delay: 3400ms; }
    .module-name.module-r1 { animation-delay: 3400ms; }

    .m-l1 { --len: 30;  --dur: 200ms;  --delay: 3200ms; }
    .m-r1 { --len: 30;  --dur: 200ms;  --delay: 3200ms; }
    .m-l2 { --len: 350; --dur: 1200ms; --delay: 3000ms; }
    .m-r2 { --len: 350; --dur: 1200ms; --delay: 3000ms; }
    .m-l3 { --len: 510; --dur: 1300ms; --delay: 2700ms; }
    .m-r3 { --len: 510; --dur: 1300ms; --delay: 2700ms; }

    .reveal-mask {
      stroke-dasharray: var(--len);
      stroke-dashoffset: var(--len);
      animation: maskGrow var(--dur) cubic-bezier(0.4, 0.05, 0.2, 1) var(--delay) forwards;
    }

    .sdk-edge {
      stroke: #171717;
      stroke-width: 2;
      fill: none;
      stroke-dasharray: var(--len);
      stroke-dashoffset: var(--len);
      animation: maskGrow var(--dur) cubic-bezier(0.25, 0.46, 0.45, 0.94) var(--delay) forwards;
    }
    @media (prefers-color-scheme: dark) {
      .sdk-edge { stroke: #e5e5e5; }
    }
    .sdk-edge-top-left  { --len: 120; --dur: 400ms;  --delay: 2300ms; }
    .sdk-edge-top-right { --len: 120; --dur: 400ms;  --delay: 2300ms; }
    .sdk-edge-left      { --len: 180; --dur: 700ms;  --delay: 2700ms; }
    .sdk-edge-right     { --len: 180; --dur: 700ms;  --delay: 2700ms; }
    .sdk-edge-bot-left  { --len: 120; --dur: 1100ms; --delay: 3400ms; }
    .sdk-edge-bot-right { --len: 120; --dur: 1100ms; --delay: 3400ms; }

    .sdk-fill {
      opacity: 0;
      animation: fadeIn 600ms cubic-bezier(0.22, 0.61, 0.36, 1) 4600ms forwards;
    }

    .sdk-summon-glow {
      opacity: 0;
      transform-box: fill-box;
      transform-origin: center;
      animation: summonGlow 1200ms cubic-bezier(0.25, 0.46, 0.45, 0.94) 4900ms forwards;
    }

    .spine-sdk-label {
      opacity: 0;
      animation: labelRise 900ms cubic-bezier(0.22, 0.61, 0.36, 1) 4500ms forwards;
      transform-box: fill-box;
      transform-origin: center;
    }

    @keyframes fadeIn            { from { opacity: 0; } to { opacity: 1; } }
    @keyframes fadeInBandBright  { from { opacity: 0; } to { opacity: 0.7; } }
    @keyframes fadeInBandFaded   { from { opacity: 0; } to { opacity: 0.28; } }
    @keyframes fadeInFaded       { from { opacity: 0; } to { opacity: 0.45; } }
    @keyframes maskGrow          { to { stroke-dashoffset: 0; } }
    @keyframes drawIn            { to { stroke-dashoffset: 0; } }
    @keyframes riseFaded {
      from { opacity: 0; transform: translateY(4px); }
      to   { opacity: 0.65; transform: translateY(0); }
    }
    @keyframes iconPop {
      0%   { opacity: 0; transform: scale(0.85); }
      70%  { opacity: 1; transform: scale(1.04); }
      100% { opacity: 1; transform: scale(1); }
    }
    @keyframes summonGlow {
      0%   { opacity: 0; transform: scale(1); }
      30%  { opacity: 0.35; transform: scale(1.015); }
      100% { opacity: 0; transform: scale(1.06); }
    }
    @keyframes labelRise {
      0%   { opacity: 0; transform: translateY(8px); }
      100% { opacity: 1; transform: translateY(0); }
    }

    @media (prefers-reduced-motion: reduce) {
      * { animation-duration: 0.01ms !important; animation-delay: 0ms !important; }
      .reveal-mask { stroke-dashoffset: 0; }
      .module-name { opacity: 0.65; }
      .app-side-left, .app-side-right { opacity: 0.45; }
      .layer-band-apps, .layer-band-hip4 { opacity: 0.28; }
      .layer-band-sdk { opacity: 0.7; }
      .sdk-edge { stroke-dashoffset: 0; }
      .sdk-fill { opacity: 1; }
      .sdk-summon-glow { opacity: 0; }
    }
  </style>

  <defs>
    <pattern id="dots-bg" x="0" y="0" width="20" height="20" patternUnits="userSpaceOnUse">
      <circle class="grid-dot" cx="1" cy="1" r="1" opacity="0.06"/>
    </pattern>

    <symbol id="outcome-icon-fixed" viewBox="0 0 21 24">
      <path class="icon-fill" d="M19.6079 0.838318L13.8672 10.7582H8.29171L6.85653 13.2401H0L4.7937 4.97834H5.67462C8.6294 4.97834 11.3676 3.39335 12.8468 0.838318H19.6079Z"/>
      <path class="icon-fill" d="M20.7124 10.759L15.9297 19.0207H15.0488C12.083 19.0207 9.34849 20.5947 7.8656 23.1607H1.10449L6.85253 13.2408H12.4281L13.8632 10.759H20.7124Z"/>
    </symbol>

    <mask id="mask-l1" maskUnits="userSpaceOnUse" x="0" y="0" width="1200" height="820">
      <rect x="0" y="0" width="1200" height="820" fill="black"/>
      <path class="reveal-mask m-l1" d="M 450 425 L 480 425"/>
    </mask>
    <mask id="mask-l2" maskUnits="userSpaceOnUse" x="0" y="0" width="1200" height="820">
      <rect x="0" y="0" width="1200" height="820" fill="black"/>
      <path class="reveal-mask m-l2" d="M 260 465 L 260 515 L 560 515"/>
    </mask>
    <mask id="mask-l3" maskUnits="userSpaceOnUse" x="0" y="0" width="1200" height="820">
      <rect x="0" y="0" width="1200" height="820" fill="black"/>
      <path class="reveal-mask m-l3" d="M 130 465 L 130 540 L 540 540 L 540 515"/>
    </mask>
    <mask id="mask-r1" maskUnits="userSpaceOnUse" x="0" y="0" width="1200" height="820">
      <rect x="0" y="0" width="1200" height="820" fill="black"/>
      <path class="reveal-mask m-r1" d="M 750 425 L 720 425"/>
    </mask>
    <mask id="mask-r2" maskUnits="userSpaceOnUse" x="0" y="0" width="1200" height="820">
      <rect x="0" y="0" width="1200" height="820" fill="black"/>
      <path class="reveal-mask m-r2" d="M 940 465 L 940 515 L 640 515"/>
    </mask>
    <mask id="mask-r3" maskUnits="userSpaceOnUse" x="0" y="0" width="1200" height="820">
      <rect x="0" y="0" width="1200" height="820" fill="black"/>
      <path class="reveal-mask m-r3" d="M 1070 465 L 1070 540 L 660 540 L 660 515"/>
    </mask>
    <mask id="mask-outcome" maskUnits="userSpaceOnUse" x="0" y="0" width="1200" height="820">
      <rect x="0" y="0" width="1200" height="820" fill="black"/>
      <path class="reveal-mask m-outcome" d="M 600 210 L 600 335"/>
    </mask>
    <mask id="mask-hip4" maskUnits="userSpaceOnUse" x="0" y="0" width="1200" height="820">
      <rect x="0" y="0" width="1200" height="820" fill="black"/>
      <path class="reveal-mask m-hip4" d="M 600 645 L 600 515"/>
    </mask>
    <mask id="mask-app-left" maskUnits="userSpaceOnUse" x="0" y="0" width="1200" height="820">
      <rect x="0" y="0" width="1200" height="820" fill="black"/>
      <path class="reveal-mask m-app-left" d="M 200 230 L 200 325 L 510 325 L 510 335"/>
    </mask>
    <mask id="mask-app-right" maskUnits="userSpaceOnUse" x="0" y="0" width="1200" height="820">
      <rect x="0" y="0" width="1200" height="820" fill="black"/>
      <path class="reveal-mask m-app-right" d="M 1000 230 L 1000 325 L 690 325 L 690 335"/>
    </mask>
  </defs>

  <g class="grid-layer">
    <rect fill="url(#dots-bg)" x="12" y="52" width="1176" height="746"/>
  </g>

  <g class="corner-ticks stroke" stroke-width="2" opacity="0.85" stroke-linecap="square">
    <path d="M 40 120 L 40 80 L 80 80"/>
    <path d="M 1120 80 L 1160 80 L 1160 120"/>
    <path d="M 40 730 L 40 770 L 80 770"/>
    <path d="M 1120 770 L 1160 770 L 1160 730"/>
  </g>

  <g class="layer-band-apps">
    <rect class="stroke-band-faded" stroke-width="1.5" x="60" y="100" width="1080" height="140" rx="3"/>
  </g>
  <g class="layer-band-sdk">
    <rect class="stroke-band-bright" stroke-width="1.5" x="60" y="290" width="1080" height="270" rx="3"/>
  </g>
  <g class="layer-band-hip4">
    <rect class="stroke-band-faded" stroke-width="1.5" x="60" y="610" width="1080" height="140" rx="3"/>
  </g>

  <g class="module-box module-l3">
    <rect class="bg-fill" x="70" y="385" width="120" height="80" rx="3"/>
    <rect class="stroke-faded" stroke-width="1.5" x="70" y="385" width="120" height="80" rx="3"/>
  </g>
  <g class="module-name module-l3">
    <text class="label-faded" x="130" y="431" font-size="16" font-weight="500" text-anchor="middle">events</text>
  </g>

  <g class="module-box module-l2">
    <rect class="bg-fill" x="200" y="385" width="120" height="80" rx="3"/>
    <rect class="stroke-faded" stroke-width="1.5" x="200" y="385" width="120" height="80" rx="3"/>
  </g>
  <g class="module-name module-l2">
    <text class="label-faded" x="260" y="431" font-size="16" font-weight="500" text-anchor="middle">market data</text>
  </g>

  <g class="module-box module-l1">
    <rect class="bg-fill" x="330" y="385" width="120" height="80" rx="3"/>
    <rect class="stroke-faded" stroke-width="1.5" x="330" y="385" width="120" height="80" rx="3"/>
  </g>
  <g class="module-name module-l1">
    <text class="label-faded" x="390" y="431" font-size="16" font-weight="500" text-anchor="middle">account</text>
  </g>

  <g class="module-box module-r1">
    <rect class="bg-fill" x="750" y="385" width="120" height="80" rx="3"/>
    <rect class="stroke-faded" stroke-width="1.5" x="750" y="385" width="120" height="80" rx="3"/>
  </g>
  <g class="module-name module-r1">
    <text class="label-faded" x="810" y="431" font-size="16" font-weight="500" text-anchor="middle">trading</text>
  </g>

  <g class="module-box module-r2">
    <rect class="bg-fill" x="880" y="385" width="120" height="80" rx="3"/>
    <rect class="stroke-faded" stroke-width="1.5" x="880" y="385" width="120" height="80" rx="3"/>
  </g>
  <g class="module-name module-r2">
    <text class="label-faded" x="940" y="431" font-size="16" font-weight="500" text-anchor="middle">auth</text>
  </g>

  <g class="module-box module-r3">
    <rect class="bg-fill" x="1010" y="385" width="120" height="80" rx="3"/>
    <rect class="stroke-faded" stroke-width="1.5" x="1010" y="385" width="120" height="80" rx="3"/>
  </g>
  <g class="module-name module-r3">
    <text class="label-faded" x="1070" y="431" font-size="16" font-weight="500" text-anchor="middle">wallet</text>
  </g>

  <g class="spine-outcome">
    <rect class="bg-fill" x="452" y="130" width="296" height="80" rx="3"/>
    <rect class="stroke" stroke-width="1.5" x="452" y="130" width="296" height="80" rx="3"/>
  </g>
  <g class="outcome-icon">
    <use href="#outcome-icon-fixed" x="476" y="149" width="36" height="42"/>
  </g>
  <g class="spine-outcome">
    <text class="label" x="526" y="180" font-size="30" font-weight="500">outcome.xyz</text>
  </g>

  <g class="spine-hip4">
    <rect class="bg-fill" x="452" y="645" width="296" height="70" rx="3"/>
    <rect class="stroke" stroke-width="1.5" x="452" y="645" width="296" height="70" rx="3"/>
    <text class="label" x="600" y="690" font-size="28" font-weight="500" text-anchor="middle">HIP-4</text>
  </g>

  <path class="connector-dotted" d="M 450 425 L 480 425" mask="url(#mask-l1)"/>
  <path class="connector-dotted" d="M 750 425 L 720 425" mask="url(#mask-r1)"/>
  <path class="connector-dotted" d="M 260 465 L 260 515 L 560 515" mask="url(#mask-l2)"/>
  <path class="connector-dotted" d="M 940 465 L 940 515 L 640 515" mask="url(#mask-r2)"/>
  <path class="connector-dotted" d="M 130 465 L 130 540 L 540 540 L 540 515" mask="url(#mask-l3)"/>
  <path class="connector-dotted" d="M 1070 465 L 1070 540 L 660 540 L 660 515" mask="url(#mask-r3)"/>
  <path class="connector-dotted" d="M 600 210 L 600 335" mask="url(#mask-outcome)"/>
  <path class="connector-dotted" d="M 600 645 L 600 515" mask="url(#mask-hip4)"/>
  <path class="connector-dotted" d="M 200 230 L 200 325 L 510 325 L 510 335" mask="url(#mask-app-left)"/>
  <path class="connector-dotted" d="M 1000 230 L 1000 325 L 690 325 L 690 335" mask="url(#mask-app-right)"/>

  <rect class="sdk-fill bg-fill" x="481" y="336" width="238" height="178" rx="3"/>

  <path class="sdk-edge sdk-edge-top-left"  d="M 600 335 L 480 335"/>
  <path class="sdk-edge sdk-edge-top-right" d="M 600 335 L 720 335"/>
  <path class="sdk-edge sdk-edge-left"      d="M 480 335 L 480 515"/>
  <path class="sdk-edge sdk-edge-right"     d="M 720 335 L 720 515"/>
  <path class="sdk-edge sdk-edge-bot-left"  d="M 480 515 L 600 515"/>
  <path class="sdk-edge sdk-edge-bot-right" d="M 720 515 L 600 515"/>

  <g class="sdk-summon-glow">
    <rect class="stroke" stroke-width="1.5" x="468" y="323" width="264" height="204" rx="4"/>
  </g>

  <g class="spine-sdk-label">
    <text class="label" x="600" y="442" font-size="44" font-weight="500" text-anchor="middle" letter-spacing="3">SDK</text>
  </g>

  <g class="app-side-left">
    <rect class="stroke-faded" stroke-width="1.5" x="155" y="135" width="90" height="62" rx="3"/>
    <rect class="stroke-faded" stroke-width="1" x="163" y="143" width="74" height="46" rx="1"/>
    <line class="stroke-faded" stroke-width="1.5" x1="200" y1="197" x2="200" y2="208"/>
    <line class="stroke-faded" stroke-width="1.5" x1="185" y1="208" x2="215" y2="208"/>
    <line class="stroke-faded" stroke-width="0.5" x1="168" y1="158" x2="232" y2="158" opacity="0.3"/>
    <line class="stroke-faded" stroke-width="0.5" x1="168" y1="170" x2="232" y2="170" opacity="0.3"/>
    <line class="stroke-faded" stroke-width="0.5" x1="168" y1="182" x2="232" y2="182" opacity="0.3"/>
    <rect class="icon-fill-faded" x="172" y="178" width="6" height="6"/>
    <rect class="icon-fill-faded" x="182" y="172" width="6" height="12"/>
    <rect class="icon-fill-faded" x="192" y="167" width="6" height="17"/>
    <rect class="icon-fill-faded" x="202" y="163" width="6" height="21"/>
    <rect class="icon-fill-faded" x="212" y="156" width="6" height="28"/>
    <circle class="icon-fill-faded" cx="215" cy="152" r="2"/>
  </g>

  <g class="app-side-right">
    <rect class="stroke-faded" stroke-width="1.5" x="955" y="135" width="90" height="62" rx="3"/>
    <rect class="stroke-faded" stroke-width="1" x="963" y="143" width="74" height="46" rx="1"/>
    <line class="stroke-faded" stroke-width="0.75" x1="963" y1="152" x2="966" y2="152"/>
    <line class="stroke-faded" stroke-width="0.75" x1="963" y1="166" x2="966" y2="166"/>
    <line class="stroke-faded" stroke-width="0.75" x1="963" y1="180" x2="966" y2="180"/>
    <line class="stroke-faded" stroke-width="0.75" x1="968" y1="184" x2="1034" y2="184" opacity="0.6"/>
    <line class="stroke-faded" stroke-width="1" x1="977" y1="160" x2="977" y2="178"/>
    <rect class="stroke-faded" stroke-width="1" x="974" y="165" width="6" height="9"/>
    <line class="stroke-faded" stroke-width="1" x1="993" y1="155" x2="993" y2="176"/>
    <rect class="icon-fill-faded" x="990" y="160" width="6" height="12"/>
    <line class="stroke-faded" stroke-width="1" x1="1009" y1="148" x2="1009" y2="172"/>
    <rect class="icon-fill-faded" x="1006" y="152" width="6" height="14"/>
    <path class="stroke-faded" stroke-width="1.5" fill="none" d="M 970 174 L 980 168 L 994 158 L 1010 150 L 1034 144"/>
    <circle class="stroke-faded" stroke-width="1" cx="1034" cy="144" r="3" fill="none"/>
    <line class="stroke-faded" stroke-width="0.75" x1="1034" y1="139" x2="1034" y2="149"/>
    <line class="stroke-faded" stroke-width="0.75" x1="1029" y1="144" x2="1039" y2="144"/>
  </g>

</svg>
